<svg width="32" height="32" viewBox="0 0 32 32" xmlns="http://www.w3.org/2000/svg">
  <defs>
    <linearGradient id="chartGradient" x1="0%" y1="100%" x2="0%" y2="0%">
      <stop offset="0%" style="stop-color:#007BFF;stop-opacity:1" />
      <stop offset="100%" style="stop-color:#0056b3;stop-opacity:1" />
    </linearGradient>
  </defs>

  <!-- Background -->
  <rect width="32" height="32" fill="#f8f9fa" rx="4"/>

  <!-- Chart bars -->
  <rect x="4" y="20" width="4" height="8" fill="url(#chartGradient)" rx="1"/>
  <rect x="9" y="16" width="4" height="12" fill="url(#chartGradient)" rx="1"/>
  <rect x="14" y="12" width="4" height="16" fill="url(#chartGradient)" rx="1"/>
  <rect x="19" y="8" width="4" height="20" fill="url(#chartGradient)" rx="1"/>
  <rect x="24" y="6" width="4" height="22" fill="url(#chartGradient)" rx="1"/>

  <!-- Trending line overlay -->
  <g stroke="#FF6B35" stroke-width="2" fill="none">
    <polyline points="6,22 11,18 16,14 21,10 26,8" stroke-linecap="round" stroke-linejoin="round"/>
    <!-- Arrow head -->
    <polygon points="24,6 26,8 28,6" fill="#FF6B35" stroke="none"/>
  </g>

  <!-- Data points on the line -->
  <circle cx="6" cy="22" r="1.5" fill="#FF6B35"/>
  <circle cx="11" cy="18" r="1.5" fill="#FF6B35"/>
  <circle cx="16" cy="14" r="1.5" fill="#FF6B35"/>
  <circle cx="21" cy="10" r="1.5" fill="#FF6B35"/>
  <circle cx="26" cy="8" r="1.5" fill="#FF6B35"/>

  <!-- Grid lines for professional look -->
  <g stroke="#e9ecef" stroke-width="0.5" opacity="0.7">
    <line x1="2" y1="28" x2="30" y2="28"/>
    <line x1="2" y1="22" x2="30" y2="22"/>
    <line x1="2" y1="16" x2="30" y2="16"/>
    <line x1="2" y1="10" x2="30" y2="10"/>
  </g>
</svg>